<?xml version="1.0" encoding="UTF-8"?>
<svg width="100px" height="100px" viewBox="0 0 100 100" version="1.1" xmlns="http://www.w3.org/2000/svg" xmlns:xlink="http://www.w3.org/1999/xlink">
    <g stroke="none" stroke-width="1" fill="none" fill-rule="evenodd">
        <g fill="#000000" fill-rule="nonzero">
            <path d="M50,100 C22.3857625,100 0,77.6142375 0,50 C0,22.3857625 22.3857625,0 50,0 C77.6142375,0 100,22.3857625 100,50 C100,77.6142375 77.6142375,100 50,100 Z M50.84,81.756 C55.796,81.756 55.796,81.756 59.618,80.034 C63.44,78.312 63.44,78.312 65.54,75.288 C67.64,72.264 67.64,72.264 67.64,68.484 C67.556,64.284 67.556,64.284 65.33,61.68 C63.104,59.076 63.104,59.076 59.996,57.774 C56.888,56.472 56.888,56.472 51.932,55.128 C47.984,54.036 47.984,54.036 45.758,53.154 C43.532,52.272 43.532,52.272 42.062,50.802 C40.592,49.332 40.592,49.332 40.592,47.064 C40.592,44.208 40.592,44.208 43.028,42.444 C45.464,40.68 45.464,40.68 49.58,40.68 C54.032,40.68 54.032,40.68 56.678,42.864 C59.324,45.048 59.324,45.048 59.576,48.66 L59.576,48.66 L67.22,48.66 C66.884,41.94 66.884,41.94 62.18,38.076 C57.476,34.212 57.476,34.212 49.832,34.212 C44.876,34.212 44.876,34.212 41.012,35.934 C37.148,37.656 37.148,37.656 35.048,40.596 C32.948,43.536 32.948,43.536 32.948,47.064 C32.948,51.516 32.948,51.516 35.258,54.246 C37.568,56.976 37.568,56.976 40.802,58.362 C44.036,59.748 44.036,59.748 49.16,61.092 C54.788,62.52 54.788,62.52 57.476,63.99 C60.164,65.46 60.164,65.46 60.164,68.484 C60.164,71.424 60.164,71.424 57.644,73.356 C55.124,75.288 55.124,75.288 50.756,75.288 C46.052,75.288 46.052,75.288 43.154,73.104 C40.256,70.92 40.256,70.92 39.92,67.476 L39.92,67.476 L32.024,67.476 C32.276,71.676 32.276,71.676 34.712,74.91 C37.148,78.144 37.148,78.144 41.348,79.95 C45.548,81.756 45.548,81.756 50.84,81.756 Z"></path>
        </g>
    </g>
</svg>